<?xml version="1.0" encoding="UTF-8"?>
<svg id="myhsia_x5F_seal" xmlns="http://www.w3.org/2000/svg" version="1.1" viewBox="0 0 300 300">
  <path fill="red" d="M57.98,21.72c1.9,1.9-1.67,4.71-4.03.67-.6-1.03,3.82-.88,4.03-.67Z"/>
  <path fill="red" d="M280.97,147.99c1.47,1.47-1.22,4.16-2.69,2.69-1.47-1.47,1.22-4.16,2.69-2.69Z"/>
  <path fill="red" d="M258.13,24.4c-2.83.35-3.03.14-2.69-2.69l2.69,2.69Z"/>
  <path fill="red" d="M278.28,165.45c-.9,1.08-2.2-1.66-1.34-2.69.9-1.08,2.2,1.66,1.34,2.69Z"/>
  <path fill="red" d="M70.07,21.72c-1.13.06-3.75-.23-4.03,0,.31-.14,2.62-5.48,4.03,0Z"/>
  <path fill="red" d="M70.07,21.72c6.29-.36,12.35-2.47,18.1-2.73,18.41-.82,37.47,2.12,56.41,2.78,4.39.15,27.91-1.09,28.92-.05.53.55-.97,4.77.67,5.37,2.49-.84,3.09-5.04,3.37-5.37.26-.31,7.7,1.13,7.99,1.4.58.54-1.17,3.77,2.75,2.62l-.67-2.69c3.54.27,5.95.39,8.06-2.68.79,1.19-1.73,4.3-.67,5.37.14.15,3.73.62,4.04-.8.67-3.08.71-1.19,1.82-2.02,1.05-.78,2.28-2.27,2.87-2.55,1.52-.73,2.71.46,2.01,2.01-1.04,2.31-4.3,1.1-4.03,3.36,1.12.23,6.34-1,6.72-1.34.28-.26-2.22-3.2-1.35-4.03.2-.19,3.2.11,4.58-.12.74-.13,1.65-1.79,2.13-1.22.18.21,1.04,4.28,1.4,5.31,2.11-.63,5.23,4.11,6.66,2.75,1.35-1.28-1.99-3.82-2.69-4.7-1.37-1.73-1.17-2.88.67-3.36,1.2-.31,5.24,2.14,6.04,3.36s-3.41-.32-2.69,2.01c2.88.4,6.36-4.66,8.68-4.01,1.07.3,2.72,3.21,4.08,3.9,1.07-1.83,4.42-.96,4.71-1.24.5-.48-1.87-2.21-1.35-2.68.35-.32,9.05-.31,9.41,0,.13.12-.37,2.66,1.34,3.35-1.38.85-2.45-1.27-4.67-.65-1.2.34-2.8,3.3-2.05,4,.57.53,2.48-.79,3.98-.72.49.02,3.4,1.52,4.06.71.39-.49-.96-3.82,2.03-2.68,2.09.8,1.83,3.79,2.02,4.03,2.06,2.68,2.76-1.92,3.31-2.72.74-1.08,3.78-3.7,4.74-2.66.88.96-2.25,4.47-1.34,5.37.8.79,4.8-2.29,6.72-1.34.44,2.66-3.5.8-4.03,1.34-2.35,2.4,6.7,7.2,9.4,6.72l-5.37-3.36c.94-2.46,7.58-2.5,8.06-2.01.74.75-2.53,5.52-1.34,6.72.82.83,3.91-2.71,5.37.67,1.23,2.85-2.31,1.73-2.65,2.05-.27.25-.24,6.11-.08,7.4.39,3.1,3.11,10.56,2.66,13.21-.17.97-2.38,4.71-2.39,5.54-.05,4.29,4.83,17.92,3.71,22.74-.34,1.47-2.46,3.22-2.64,5.44s1.17,9.36,1.44,12.08c.5,5.15-2.03,9.13-1.43,13.52.19,1.36,2.15,3.91,1.39,4.65-.8.79-4.79-2.29-6.72-1.34-.43,2.67,3.46.78,4.03,1.35.32.32-.22,3.51,0,4.7l2.69-.67c-.41,3.88-1.34,6.87,0,10.75l-4.03-2.69c.37,1.95-1.25,2.86-1.4,4.68-.22,2.57,1.58,3.98,1.35,5.26-.17.93-2.59,3.83-2.6,4.17,0,.82,5.18,4.15,5.34,6.04-2.91,1.93-8.29-3.73-9.4-2.69-.29.27,2.68,5.71,2.68,6.04.01,1.79-3.77,2.46-5.37.67.73,1.98-1.35,3.12-1.34,3.36.01.47,2.09,2.39,3.36,2.01,2.31-.69.93-5.27,4.7-4.03.12,1.31-1.71,7.63-1.34,8.06.31.36,3-2.27,4.03-1.34.36.32-1.94,2.38-1.3,4.64.34,1.21,3.52,2.83,3.91,4.17.33,1.17.51,10.95.08,11.33s-3.51-.42-4,.04c-.2.19-.54,3.97-2.72,4.66l5.37,2.69c-.3,1.6-5.56,3.75-5.37,4.03,1.85,2.79,4.59-.1,5.36,2.7.81,2.95-.78,17.36.06,18.08.41.35,2.1-.3,2.59.09.21.17,1.56,4.4.22,4.78.95,6.04-2.64,4.7-4.18,5.94-.15.12-.14,3.83.01,3.96.42.34,2.11-.31,2.59.1.14.12,1.27,3.23,1.3,3.41.28,1.62.48,10.87.12,11.3-.18.21-3.55-2.23-5.37-1.34l2.69,5.37c-1.04.2-5.17,1.16-5.36,1.35-.44.43.42,4.92-.02,5.36-.2.2-4.37-.49-5.37,2.02,1.5,2.41,5.68-1.61,6.72-.67,1.24,1.13-3.68,5.91-3.99,7.51-.26,1.31,2.18,3.68,1.3,4.58-.23.23-1.29-.31-2,.01-.58.26-1.56,1.98-2,1.32-.33-.5.33-2.2-.06-2.64-.41-.47-3.55.36-3.98-.06-.28-.27-.06-5.62-3.37-6.7l3.36,9.4c-2.1.98-4.46-1.35-4.7-1.34-1.65.06.44,1.46.43,2.01-.04,3.15-3.16.62-4.44.6-2.27-.04-4.44,3.01-3.38,4.1.64.66,5.2-1.81,4.03,2.69l-13.98-1.47c-5.62-3.46-11.83-1.09-18.8-2.7-1.08-.25-4.55-2.93-4.83-2.55-.3.42.35,2.16-.07,2.64-.17.2-4.4,1.55-4.78.19-5.19,1.35-5.96,3.49-11.96,3.59-10.17.18-22.55-2.04-32.41-1.22-9.58.8-20.44,1.29-29.53.32-6.88-.73-14.53-1.77-21.37-1.54-4.74.16-6.56-.43-12.01.09-8.53.8-18.26-.64-26.96-.1-3.06.19-6.07,2.06-10.74,1.43-3.18-.43-3.63-3.95-6.68-4.07l.67,4.7c.18,1.17-2.59.77-2.69.67-.42-.42,1.24-6.14-2.69-6.72,1,4.62-4.77,1.23-1.41,4.73-.73,1.31-2.21-1.22-2.57-.72-.45.63.66,2.83-.73,2.7-2.69-3.87-2.87-1.46-5.33-1.3-1.26.08-5.85.15-6.08-.04-.54-.46-.46-3.69,1.97-2.64,1.79.77,2.73,2.04,5.4,1.28,1.19-.34,2.78-3.33,2.03-4.01-.4-.36-8.44.59-10.07-2.69-3.41,1.29.19,4.35-.67,5.37-2.4,2.85-2.64-2.73-3.36-2.69-2.84.16-3.04,3.26-6.04,2.69.63-2.08-1.63-2.67-.68-4.03,1.33-1.89,3.73-.44,3.37-2.68l-6.72,2.69c1.18-7.32-1.66-4.57-2.68-5.39-.78-.64,2.3-5.09,1.33-6.7.19-.2,5.16,1.17,5.37,1.34.75.63-2.85,2.75-2.69,4.03l4.03-4.68c-.56-1.85-5.43-2.64-7.38-3.38-1.51-.57,1.38-2.38.66-4.02l-4.03.67,4.03-3.36-2.01-1.35c2.02-2.53-3.23.39-2.02-4.03l4.03-1.34c-3.41-1.74-5.84,1.42-5.32-1.98.34-2.22.63-4.3,1.16-6.96.29-1.45-1.1-2.19-1.12-2.49-.05-.82,2.95-2.79,3.93-2,.17.13-2.64,3.26,1.34,4.03l2.69-4.7-5.37-2.02,2.69-2.69c-1.46-.6-3.72,1.68-4.03,1.34-.14-.16.26-2.44-1.13-3.34.27-7.01.95-17.42-.04-24.37-1.09-7.64,4.69-9.05,3.91-14.65-.2-1.45-1.19-2.24-1.29-2.83-.25-1.41,1.41-2.25,1.15-3.65-.38-2.02-.88-4.64-1.38-6.78s-3.88-5.17-3.88-5.5c.02-1.42,5.64-3.87,6.69-5.37l-5.37.67c.36-1.13,1.39-5.08,1.22-5.83-1.24-5.72,1.42-4.54,1.38-5.59-.02-.49-3.08-4.38-2.61-4.69.43-.29,2.12.39,2.6-.11.43-.45-.26-2.04.18-2.49.6-.6,3.65.97,2.49-1.99-.29-.74-1.18-1.21-1.19-1.47-.05-.84,2.69-2.39,3.98-2.01l-2.69-2.69c.63,2.42-1.33,2.82-2.11,4.03-.82,1.27,1.34,2.15.77,2.69-.84.8-4.05-1.23-4.03-2.01.01-.49,3.47-2.76,2.69-3.36-.37-.28-2.17.36-2.67-.03-.42-.33-.4-10.34.01-10.67.45-.37,2.16.29,2.61-.08.29-.23.25-6.11.08-7.39-.26-1.99-3.49-5.41-4-8.18-.45-2.45,1.55-11.03,1.33-13.3-.84-8.79,2.3-18.47,1.32-25.54-.9-6.53,1.2-6.35,1.2-8.01,0-.51-2.5-3.57-2.51-4.04-.02-.62,2.23-1.69,2.56-2.79.34-1.16-2.46-5.63-2.45-6.6.01-2.28,1.89-2.83,1.11-8.01-.74-4.91,2.55-3.21,6.77-4.75.43-2.66-3.4-.79-4.03-1.34-.21-.18,2.2-3.44,1.39-5.32,3.67.09,5.35-4.31,7.98-6.12,1.78-1.23,11.28-3.67,12.7-3.26,1.09.32,2.12,2.52,2.77,2.53s2.03-2.54,2.68-2.51c1.45.06,7.09,6.07,8.71,3.94.4-.52-.16-6.35,2.72.57.7,1.68,3.68.45,5.36.77-.37-3.27-5.85-3.33-6.72-4.03-3.94-3.17,5.03-2.53,5.37-2.69-1.14.91,5.47,5.61,4.03,0ZM87.54,28.43c1.08,1.35,4.18-4.93,2.69-6.72-1.14-1.36-3.53,5.67-2.69,6.72ZM164.1,23.06c-1.03-.86-3.77.44-2.69,1.34s3.77-.44,2.69-1.34ZM105.67,24.4c-.87,0-.87,1.34,0,1.34s.87-1.34,0-1.34ZM246.04,28.43c-3.1,1.08-4.04-1.43-5.32-2.07s-6.17-1.11-6.77-.62c-.69.57.72,4.61,2.69,3.33,2.11-1.06,5.69,3.36,6.04,3.36.27,0,3.32-2.97,3.36-4ZM77.46,29.78c-.87,0-.87,1.34,0,1.34s.87-1.34,0-1.34ZM255.45,31.12c-1.03-.86-3.77.44-2.69,1.34s3.77-.44,2.69-1.34ZM262.84,32.46c-.87,0-.87,1.34,0,1.34s.87-1.34,0-1.34ZM272.24,40.52c-.87,0-.87,1.34,0,1.34s.87-1.34,0-1.34ZM209.78,51.27h43.66c2.75,0,2.75-9.4,0-9.4h-85.97l-8.64,4.12c-.55,2.98-3.46,5.7-3.98,8.79-1.06,6.3-1.01,28.27-.19,34.83.48,3.83,3.56,8.53,6.74,10.72,2.37,1.63,5.31,1.6,7.41,3.33h32.91c.27,0,.27,5.37,0,5.37h-34.25c-3.48,2.05-8.64,2.8-10.79,6.67-.9,1.63-.27,3.6-1.97,4.75v21.49c0,2.15,7.09,3.33,8.02-.04,1.29-4.65-1.22-14.01.12-18.69.33-1.14,5.34-4.78,5.96-4.78h32.91c.2,0,.14,3.89,0,4.03-.74.73-13.96-1.26-20.18,3.33-5.59,4.13-6.87,20.64,2.03,18.15,3.37-.94,1.4-7.51,2.09-10,1.06-3.85,15.28-4.21,16.06-3.42.43.44-.73,4.58.63,6.76,2.41,3.85,7.09,4.66,10.78,6.68h42.31c-.09-3.17.94-6.21-2.05-8.02-14.53-.65-29.38,1.33-43.62-1.39.13-.84-.2-4.02,0-4.02h35.6c2.86-2.02,7.42-2.08,9.44-5.34.98-1.58.95-6.8.68-8.81-.65-4.74-6.65-5.2-10.11-7.35h-35.6c-.27,0-.27-5.37,0-5.37h31.57c.18,0,.63-1.01,1.48-1.21,1.25-.29,2.62.07,3.77-.26.28-.08,4.43-2.83,4.86-3.2,1.1-.94,3.83-6.51,4.04-8.05.6-4.38.56-17.14,0-21.59-.42-3.33-2.66-7.4-5.41-9.37-.72-.52-5.72-3.34-6.06-3.34h-34.25c-.27,0,.18-4.31,0-5.37ZM131.87,62.69v79.25c0,2.66,8.06,2.66,8.06,0V60c-1.85-4.78-5.19-9.46-10.21-11.28-8.99-3.26-20.32-.18-29.46-1.44-2.24-.31-3.94-2.26-5.45-2.61-7.21-1.64-10.62,1.93-15.94,2.61-8.1,1.03-15.17-.19-24.18,1.34-3.36.57-5.11-.6-8.81,1.94-1.59,1.09-6.69,8.24-6.69,9.43v69.18c-2.24-.86-5.04-2.32-7.37-2.71-2.82-.48-2.63,2.23-2.04,2.71.37.3,8.77.74,9.4,1.35.45.44-.29,8.05-.02,10.09.59,4.36,5.73,4.63,8.05,1.28v-76.57c.54-4.02,4.7-8.18,8.72-8.73,7.49-1.02,18.36,1.45,25.44-.08,1.84-.4,5.16-3.39,6.94-3.8,4.8-1.12,7.94,3.43,11.94,3.98,7.12.98,17.34-1.37,24.11.07,1.49.32,7.18,4.72,7.51,5.93ZM276.27,53.96c-.87,0-.87,1.34,0,1.34s.87-1.34,0-1.34ZM94.25,74.1c.84-.82,20.08,0,23.51,0,3.07,0,4.91-9.4,1.34-9.4h-61.12c-.16,0,.06,2.11-.13,3.25-.1.62-1.05,1.06-1.05,1.46s2.56,4.7,3.2,4.7h24.85c.27,0,.27,5.37,0,5.37h-24.85c-3.07,0-4.91,9.4-1.34,9.4h25.52c2.67,0,1.71,6.62,2.13,8.61.92,4.37,6.98,8.37,11.25,8.9s13.89-1.94,15.41,3.39c.49,1.7.49,20.97,0,22.67-.17.59-2.77,3.19-3.36,3.36-1.41.4-11.91.43-13.31.04-3.29-.92-1.66-7.35-2-10.09-.12-.94-2.45-8.32-2.78-8.64-.28-.27-6.58-2.68-7.3-2.78-3.2-.44-14.44-.46-17.39.17s-8.13,5.92-8.73,8.73c-.49,2.28-.62,16.73-.08,18.65.61,2.19,6.06,2.7,6.67,2.05.17-.18,1.33-4.06,1.39-4.65.49-4.2-.63-9.36-.07-13.51.18-1.33.87-2.96,2.08-3.29,1.41-.39,13.31-.39,14.7,0,3.26.91,1.69,8.24,2.2,11.24.09.53,1.47,4.27,1.82,4.89,3.79,6.76,21.54,6.77,27.63,3.36,2.97-1.66,6.3-7.38,6.72-10.75.58-4.65.57-18.24-.19-22.74-.09-.53-1.47-4.27-1.82-4.89-.78-1.39-5.35-4.88-6.88-5.2-7.68-1.64-19.93,3.75-18.01-9.52h24.85c2.11,0,2.62-7.47,2-8.05-.2-.19-1.18.21-1.89-.09-.78-.33-1.3-1.26-1.45-1.26h-23.51c-.27,0-.19-5.18,0-5.37ZM25.75,80.82c.86-1.03-.44-3.77-1.34-2.69s.44,3.77,1.34,2.69ZM27.76,80.82c-.87,0-.87,1.34,0,1.34s.87-1.34,0-1.34ZM56.64,98.28c.86-1.03-.44-3.77-1.34-2.69s.44,3.77,1.34,2.69ZM25.76,126.47c-.72-.68,1.48-5.66-1.36-5.35.49,1.55-2.23,4.48-1.34,5.37.19.2,4.36,1.18,5.37,1.34.53-2.41-2.14-.86-2.67-1.36ZM276.27,129.18c-1.9,0,2.02,3.91,2.01,2.01,0-.14-1.87-2.01-2.01-2.01ZM30.45,143.96c-.87,0-.87,1.34,0,1.34s.87-1.34,0-1.34ZM25.75,149.33l-2.69-2.69c-.35,2.83-.14,3.03,2.69,2.69ZM272.24,150.67c-.87,0-.87,1.34,0,1.34s.87-1.34,0-1.34ZM47.24,219.18v-59.78c0-2.66-8.06-2.66-8.06,0v87.31l4.12,8.64c3.08.75,5.55,3.18,8.8,3.96,1.44.35,4.27-.08,4.51.19.13.15.03,4.37,1.37,2.66.24-.31-.18-2.69,0-2.69h65.82c1.4-4.54,2.45-6.34-2.1-9.32l-69.81-.04c-3.13-.42-5.36-3.67-4.66-6.76h76.57c.4,0,.4-8.06,0-8.06H47.24c-.34,0-.34-6.72,0-6.72h73.21c.15,0,.67-.93,1.45-1.26.72-.3,1.7.1,1.89-.09.43-.41-.27-6.39.01-8.05H47.24ZM128.51,157.39H55.97c-2.75,0-2.75,9.4,0,9.4h35.6c.44,4.47-.61,9.81-.03,14.13.66,4.86,7.28,4.08,8.05,1.28s-.68-14.69.04-15.41c.93-.93,23.42-.43,26.24-.05,8.8,1.2,5.5,9.43,5.99,16.16-2.84.06-6.06,2.42-8.67,2.74-18.02,2.27-40.48-1.91-59.01.09-9.23,2.09-12.76,11.91-8.25,20.05,1.22,2.2,8.2,5.06,10.74,5.38,17.2,2.17,38.63-1.83,56.33.09,1.39,1.34,3.33.96,4.89,1.83.88.49,3.98,5.06,3.98,5.42v40.97c2.1.78,8.06,2.34,8.06-.67v-45.67c0-.39-3.43-6.28-3.99-6.76-3.2-2.74-8.98-3.13-12.75-4.71l-57.84.08c-3.12.78-4.33-5.68-3.33-6.74,1.21-1.27,4.94,4.06,4.06-1.32l58.45.02c5.05-1.67,10.08-1.88,13.41-6.74,3.06-4.46,3.06-18.44,0-22.89-1.25-1.82-7.51-6.26-9.43-6.69ZM167.61,157.53c-1.17.2-5.5,1.97-6.71,2.69-3.96,2.36-4.26,6.23-6.05,10.07,1.49,18.87-2.49,42.02-.19,60.35.65,5.17,5.38,10.8,10.26,12.57,1.01.37,2.45.03,3.72.31.61.13,1.08.93,1.67,1.01,1.93.28,4.72.45,6.6.21,1.41-.18,2.12-1.08,2.8-1.23,1.27-.27,2.71.06,3.72-.31,4.9-1.78,8.65-6.55,10.07-11.42l.19-60.36c-1.54-4.16-2.13-8.76-6.25-11.22-5.03-2.99-14.13-3.67-19.85-2.69ZM204.4,251.42h-47.69c-2.66,0-2.66,8.06,0,8.06h85.97c2.05-1.77,5.14-1.65,7.41-3.33,2.7-2,3.42-5.5,5.22-8.21.12-21.45.3-42.93.09-64.38-.02-1.99.06-3.21,0-5.31-.18-5.96.76-9.27-2.81-14.65-1.14-1.72-7.27-6.21-8.57-6.21h-44.33c-2.27,0-3.4,8.38.05,9.35,1.2.34,4.65-.18,4.65.05v84.63ZM24.4,161.42c1.38-1.38-.43-4.55-2.69-.67-.57.97,2.44.92,2.69.67ZM22.39,168.13c-.87,0-.87,1.34,0,1.34s.87-1.34,0-1.34ZM263.51,185.6c.13-.15.13-3.87,0-4.03-1.76-2.11-1.76,6.14,0,4.03ZM278.28,186.94l-5.38-2.69c2.73,2.55-2.06,4.63-1.34,5.37,2.3,2.36,2.2-.33,2.64-1.89.46-1.65,2.83-.56,4.08-.8ZM274.25,207.09c.86-1.03-.44-3.77-1.34-2.69s.44,3.77,1.34,2.69ZM270.9,207.09c-.87,0-.87,1.34,0,1.34s.87-1.34,0-1.34ZM272.91,216.49l-2.69-2.69c-.35,2.83-.14,3.03,2.69,2.69ZM36.49,231.27c-.14-.14-3.87-.13-4.03,0-.62.51,1.09,1.42,1.27,2.09.31,1.19-.03,6.07,2.76,3.28.19-.19.19-5.18,0-5.37ZM27.09,236.64c1.52,1.27,5.27-2.69,3.36-2.68-.43,0-.77,1.14-1.35,1.34-.37.13-3.46.14-2.01,1.34ZM33.81,247.39c.86-1.03-.44-3.77-1.34-2.69s.44,3.77,1.34,2.69ZM26.42,246.04c-.87,0-.87,1.34,0,1.34s.87-1.34,0-1.34ZM30.45,246.04c-.87,0-.87,1.34,0,1.34s.87-1.34,0-1.34ZM61.34,246.04c-.87,0-.87,1.34,0,1.34s.87-1.34,0-1.34ZM29.1,251.42c-.87,0-.87,1.34,0,1.34s.87-1.34,0-1.34ZM37.84,251.42c-.25-.25-3.25-.3-2.69.67,2.26,3.88,4.06.71,2.69-.67ZM33.81,255.45c.09-.1.09-2.57,0-2.69-.18-.22-5.08,1.81-4.03,2.69.15.13,3.89.14,4.03,0ZM39.85,255.45c-.87,0-.87,1.34,0,1.34s.87-1.34,0-1.34ZM47.91,262.16c-.87,0-.87,1.34,0,1.34s.87-1.34,0-1.34ZM94.93,262.16c-.87,0-.87,1.34,0,1.34s.87-1.34,0-1.34ZM39.85,268.88c-.87,0-.87,1.34,0,1.34s.87-1.34,0-1.34ZM94.93,268.88c-.87,0-.87,1.34,0,1.34s.87-1.34,0-1.34ZM34.48,272.91c-.87,0-.87,1.34,0,1.34s.87-1.34,0-1.34ZM72.09,278.28c-.87,0-.87,1.34,0,1.34s.87-1.34,0-1.34Z"/>
  <path fill="red" d="M247.39,76.79c.24.24.34,6.72,0,6.72h-84.63c-.34,0-.34-6.72,0-6.72h84.63Z"/>
  <path fill="red" d="M244.03,64.7c.21.04.64.91,1.46,1.25.75.31,1.72-.07,1.9.1.1.09.13,2.69,0,2.69h-84.63c-.2,0-.2-4.03,0-4.03h81.27Z"/>
  <path fill="red" d="M247.39,91.57c2.47,2.04-3.77,3.99-4.65,4.08-23.6,2.45-51.26-1.96-75.32,0-2.14-1.04-5.61-.6-4.65-4.08h84.63Z"/>
  <path fill="red" d="M201.72,51.27c.82.82-.65,5.37-2.01,5.37h-36.94c-.2,0-.15-3.89,0-4.02.21-.18,2.75.28,3.36-1.35,4.76.95,34.34-1.26,35.6,0Z"/>
  <path fill="red" d="M247.39,118.43c-.13.85.2,4.03,0,4.03h-37.61c-.2,0-.2-4.03,0-4.03h37.61Z"/>
  <path fill="red" d="M212.46,251.42v-84.63h27.54c1.15,0,7.67,5.16,7.43,7.35v68.59c.02,2.78-5.24,8.68-7.43,8.68h-27.54ZM233.96,247.39v-77.24c0-2.66-8.06-2.66-8.06,0v75.22c0,2.1,7.46,2.63,8.06,2.01Z"/>
  <path fill="red" d="M185.6,197.69h-22.84v-24.85c0-.62,3.65-5.64,4.78-5.96,1.47-.42,11.8-.42,13.27,0,1.14.33,4.78,5.34,4.78,5.96v24.85Z"/>
  <path fill="red" d="M185.6,205.75v23.51c0,.62-3.65,5.64-4.78,5.96-1.47.42-11.8.42-13.27,0-1.14-.33-4.78-5.34-4.78-5.96v-23.51h22.84Z"/>
</svg>